<mxfile host="Electron" agent="Mozilla/5.0 (X11; Linux x86_64) AppleWebKit/537.36 (KHTML, like Gecko) draw.io/26.0.4 Chrome/128.0.6613.186 Electron/32.2.5 Safari/537.36" version="26.0.4" pages="3">
  <diagram name="Layers" id="8JNJxXVCMN2RUSeAKClu">
    <mxGraphModel dx="1364" dy="843" grid="1" gridSize="10" guides="1" tooltips="1" connect="1" arrows="1" fold="1" page="1" pageScale="1" pageWidth="1169" pageHeight="827" math="0" shadow="0">
      <root>
        <mxCell id="0" />
        <mxCell id="1" parent="0" />
        <mxCell id="Tp1kD3DlXPd0WU1--wx6-2" value="US sensor" style="rounded=0;whiteSpace=wrap;html=1;fillColor=#d5e8d4;strokeColor=#82b366;" parent="1" vertex="1">
          <mxGeometry x="200" y="400" width="120" height="60" as="geometry" />
        </mxCell>
        <mxCell id="Tp1kD3DlXPd0WU1--wx6-5" value="Acc/gyro" style="rounded=0;whiteSpace=wrap;html=1;fillColor=#d5e8d4;strokeColor=#82b366;" parent="1" vertex="1">
          <mxGeometry x="340" y="400" width="120" height="60" as="geometry" />
        </mxCell>
        <mxCell id="Tp1kD3DlXPd0WU1--wx6-6" value="Compass" style="rounded=0;whiteSpace=wrap;html=1;fillColor=#d5e8d4;strokeColor=#82b366;" parent="1" vertex="1">
          <mxGeometry x="480" y="400" width="120" height="60" as="geometry" />
        </mxCell>
        <mxCell id="Tp1kD3DlXPd0WU1--wx6-7" value="Battery&lt;br&gt;voltage" style="rounded=0;whiteSpace=wrap;html=1;fillColor=#d5e8d4;strokeColor=#82b366;" parent="1" vertex="1">
          <mxGeometry x="620" y="400" width="120" height="60" as="geometry" />
        </mxCell>
        <mxCell id="Tp1kD3DlXPd0WU1--wx6-15" style="edgeStyle=orthogonalEdgeStyle;rounded=0;orthogonalLoop=1;jettySize=auto;html=1;exitX=0.5;exitY=0;exitDx=0;exitDy=0;fillColor=#d5e8d4;strokeColor=#82b366;" parent="1" source="Tp1kD3DlXPd0WU1--wx6-8" edge="1">
          <mxGeometry relative="1" as="geometry">
            <mxPoint x="260" y="230" as="targetPoint" />
          </mxGeometry>
        </mxCell>
        <mxCell id="Tp1kD3DlXPd0WU1--wx6-8" value="Distance Right" style="rounded=0;whiteSpace=wrap;html=1;fillColor=#d5e8d4;strokeColor=#82b366;" parent="1" vertex="1">
          <mxGeometry x="200" y="230" width="120" height="30" as="geometry" />
        </mxCell>
        <mxCell id="Tp1kD3DlXPd0WU1--wx6-9" value="Motor" style="rounded=0;whiteSpace=wrap;html=1;fillColor=#d5e8d4;strokeColor=#82b366;" parent="1" vertex="1">
          <mxGeometry x="760" y="400" width="120" height="60" as="geometry" />
        </mxCell>
        <mxCell id="Tp1kD3DlXPd0WU1--wx6-10" value="Steering" style="rounded=0;whiteSpace=wrap;html=1;fillColor=#d5e8d4;strokeColor=#82b366;" parent="1" vertex="1">
          <mxGeometry x="900" y="400" width="120" height="60" as="geometry" />
        </mxCell>
        <mxCell id="Tp1kD3DlXPd0WU1--wx6-11" value="&lt;div style=&quot;text-align: center;&quot;&gt;&lt;span style=&quot;background-color: initial; font-size: 14px; text-wrap: nowrap;&quot;&gt;&lt;b&gt;Drive by wire&lt;br&gt;&amp;nbsp;within limits&lt;/b&gt;&lt;/span&gt;&lt;/div&gt;" style="text;whiteSpace=wrap;html=1;" parent="1" vertex="1">
          <mxGeometry x="40" y="110" width="90" height="40" as="geometry" />
        </mxCell>
        <mxCell id="Tp1kD3DlXPd0WU1--wx6-12" value="Distance Left" style="rounded=0;whiteSpace=wrap;html=1;fillColor=#d5e8d4;strokeColor=#82b366;" parent="1" vertex="1">
          <mxGeometry x="200" y="270" width="120" height="30" as="geometry" />
        </mxCell>
        <mxCell id="Tp1kD3DlXPd0WU1--wx6-13" value="Distance Rear" style="rounded=0;whiteSpace=wrap;html=1;fillColor=#d5e8d4;strokeColor=#82b366;" parent="1" vertex="1">
          <mxGeometry x="200" y="310" width="120" height="30" as="geometry" />
        </mxCell>
        <mxCell id="Tp1kD3DlXPd0WU1--wx6-14" value="Distance Front" style="rounded=0;whiteSpace=wrap;html=1;fillColor=#d5e8d4;strokeColor=#82b366;" parent="1" vertex="1">
          <mxGeometry x="200" y="350" width="120" height="30" as="geometry" />
        </mxCell>
        <mxCell id="Tp1kD3DlXPd0WU1--wx6-16" value="Motor speed" style="rounded=0;whiteSpace=wrap;html=1;fillColor=#d5e8d4;strokeColor=#82b366;" parent="1" vertex="1">
          <mxGeometry x="760" y="310" width="120" height="30" as="geometry" />
        </mxCell>
        <mxCell id="Tp1kD3DlXPd0WU1--wx6-17" value="Motor direction" style="rounded=0;whiteSpace=wrap;html=1;fillColor=#d5e8d4;strokeColor=#82b366;" parent="1" vertex="1">
          <mxGeometry x="760" y="350" width="120" height="30" as="geometry" />
        </mxCell>
        <mxCell id="Tp1kD3DlXPd0WU1--wx6-18" value="Direction" style="rounded=0;whiteSpace=wrap;html=1;fillColor=#d5e8d4;strokeColor=#82b366;" parent="1" vertex="1">
          <mxGeometry x="900" y="350" width="120" height="30" as="geometry" />
        </mxCell>
        <mxCell id="Tp1kD3DlXPd0WU1--wx6-19" value="Angel" style="rounded=0;whiteSpace=wrap;html=1;fillColor=#d5e8d4;strokeColor=#82b366;" parent="1" vertex="1">
          <mxGeometry x="900" y="310" width="120" height="30" as="geometry" />
        </mxCell>
        <mxCell id="Tp1kD3DlXPd0WU1--wx6-20" value="Energy level" style="rounded=0;whiteSpace=wrap;html=1;fillColor=#d5e8d4;strokeColor=#82b366;" parent="1" vertex="1">
          <mxGeometry x="620" y="350" width="120" height="30" as="geometry" />
        </mxCell>
        <mxCell id="Tp1kD3DlXPd0WU1--wx6-21" value="&lt;div style=&quot;text-align: center;&quot;&gt;&lt;span style=&quot;background-color: initial; font-size: 14px; text-wrap: nowrap;&quot;&gt;&lt;b&gt;Control&lt;br&gt;logic&lt;/b&gt;&lt;/span&gt;&lt;/div&gt;" style="text;whiteSpace=wrap;html=1;" parent="1" vertex="1">
          <mxGeometry x="55" y="20" width="90" height="40" as="geometry" />
        </mxCell>
        <mxCell id="Tp1kD3DlXPd0WU1--wx6-23" value="Sensor fusion and value collection&amp;nbsp;" style="rounded=0;whiteSpace=wrap;html=1;fillColor=#fff2cc;strokeColor=#d6b656;" parent="1" vertex="1">
          <mxGeometry x="200" y="190" width="540" height="30" as="geometry" />
        </mxCell>
        <mxCell id="Tp1kD3DlXPd0WU1--wx6-24" value="Actuator control" style="rounded=0;whiteSpace=wrap;html=1;fillColor=#fff2cc;strokeColor=#d6b656;" parent="1" vertex="1">
          <mxGeometry x="757" y="190" width="250" height="30" as="geometry" />
        </mxCell>
        <mxCell id="E7d4VniNN11hWI3d9czu-10" style="edgeStyle=orthogonalEdgeStyle;rounded=0;orthogonalLoop=1;jettySize=auto;html=1;exitX=0.842;exitY=0.975;exitDx=0;exitDy=0;exitPerimeter=0;" parent="1" source="Tp1kD3DlXPd0WU1--wx6-25" target="Tp1kD3DlXPd0WU1--wx6-24" edge="1">
          <mxGeometry relative="1" as="geometry" />
        </mxCell>
        <mxCell id="Tp1kD3DlXPd0WU1--wx6-25" value="Operational function interface" style="rounded=0;whiteSpace=wrap;html=1;fillColor=#fff2cc;strokeColor=#d6b656;" parent="1" vertex="1">
          <mxGeometry x="200" y="110" width="810" height="40" as="geometry" />
        </mxCell>
        <mxCell id="E7d4VniNN11hWI3d9czu-1" value="AI-Driver" style="rounded=0;whiteSpace=wrap;html=1;" parent="1" vertex="1">
          <mxGeometry x="197" y="10" width="270" height="60" as="geometry" />
        </mxCell>
        <mxCell id="E7d4VniNN11hWI3d9czu-2" value="Remote-control" style="rounded=0;whiteSpace=wrap;html=1;" parent="1" vertex="1">
          <mxGeometry x="565" y="10" width="310" height="60" as="geometry" />
        </mxCell>
        <mxCell id="E7d4VniNN11hWI3d9czu-4" style="edgeStyle=orthogonalEdgeStyle;rounded=0;orthogonalLoop=1;jettySize=auto;html=1;entryX=0.163;entryY=0;entryDx=0;entryDy=0;entryPerimeter=0;" parent="1" source="E7d4VniNN11hWI3d9czu-1" target="Tp1kD3DlXPd0WU1--wx6-25" edge="1">
          <mxGeometry relative="1" as="geometry" />
        </mxCell>
        <mxCell id="E7d4VniNN11hWI3d9czu-5" style="edgeStyle=orthogonalEdgeStyle;rounded=0;orthogonalLoop=1;jettySize=auto;html=1;entryX=0.642;entryY=0.1;entryDx=0;entryDy=0;entryPerimeter=0;" parent="1" source="E7d4VniNN11hWI3d9czu-2" target="Tp1kD3DlXPd0WU1--wx6-25" edge="1">
          <mxGeometry relative="1" as="geometry" />
        </mxCell>
        <mxCell id="E7d4VniNN11hWI3d9czu-6" value="&lt;b style=&quot;forced-color-adjust: none; color: rgb(0, 0, 0); font-family: Helvetica; font-style: normal; font-variant-ligatures: normal; font-variant-caps: normal; letter-spacing: normal; orphans: 2; text-align: center; text-indent: 0px; text-transform: none; widows: 2; word-spacing: 0px; -webkit-text-stroke-width: 0px; white-space: nowrap; background-color: rgb(251, 251, 251); text-decoration-thickness: initial; text-decoration-style: initial; text-decoration-color: initial; font-size: 14px;&quot;&gt;IO&lt;br style=&quot;forced-color-adjust: none;&quot;&gt;Sensors and&amp;nbsp;&lt;br style=&quot;forced-color-adjust: none;&quot;&gt;Activators&lt;/b&gt;" style="text;whiteSpace=wrap;html=1;" parent="1" vertex="1">
          <mxGeometry x="35" y="395" width="120" height="70" as="geometry" />
        </mxCell>
        <mxCell id="E7d4VniNN11hWI3d9czu-7" value="&lt;b data-mx-given-colors=&quot;{&amp;quot;color&amp;quot;:&amp;quot;rgb(0, 0, 0)&amp;quot;}&quot; style=&quot;forced-color-adjust: none; color: light-dark(rgb(0, 0, 0), rgb(0, 0, 0)); font-family: Helvetica; font-style: normal; font-variant-ligatures: normal; font-variant-caps: normal; letter-spacing: normal; orphans: 2; text-indent: 0px; text-transform: none; widows: 2; word-spacing: 0px; -webkit-text-stroke-width: 0px; white-space: nowrap; background-color: rgb(251, 251, 251); text-decoration-thickness: initial; text-decoration-style: initial; text-decoration-color: initial; text-align: center; font-size: 14px;&quot;&gt;Get/set&amp;nbsp;Values&lt;/b&gt;" style="text;whiteSpace=wrap;html=1;" parent="1" vertex="1">
          <mxGeometry x="25" y="280" width="130" height="40" as="geometry" />
        </mxCell>
        <mxCell id="E7d4VniNN11hWI3d9czu-8" value="&lt;b style=&quot;forced-color-adjust: none; color: light-dark(rgb(0, 0, 0), rgb(0, 0, 0)); font-family: Helvetica; font-style: normal; font-variant-ligatures: normal; font-variant-caps: normal; letter-spacing: normal; orphans: 2; text-indent: 0px; text-transform: none; widows: 2; word-spacing: 0px; -webkit-text-stroke-width: 0px; white-space: nowrap; background-color: rgb(251, 251, 251); text-decoration-thickness: initial; text-decoration-style: initial; text-decoration-color: initial; text-align: center; font-size: 14px;&quot;&gt;HAL interface&lt;/b&gt;" style="text;whiteSpace=wrap;html=1;" parent="1" vertex="1">
          <mxGeometry x="30" y="185" width="130" height="40" as="geometry" />
        </mxCell>
        <mxCell id="E7d4VniNN11hWI3d9czu-9" style="edgeStyle=orthogonalEdgeStyle;rounded=0;orthogonalLoop=1;jettySize=auto;html=1;entryX=0.333;entryY=0.95;entryDx=0;entryDy=0;entryPerimeter=0;" parent="1" source="Tp1kD3DlXPd0WU1--wx6-23" target="Tp1kD3DlXPd0WU1--wx6-25" edge="1">
          <mxGeometry relative="1" as="geometry" />
        </mxCell>
      </root>
    </mxGraphModel>
  </diagram>
  <diagram id="LD_rrLnMnv0T3fIQoL3-" name="Structure">
    <mxGraphModel dx="1364" dy="843" grid="1" gridSize="10" guides="1" tooltips="1" connect="1" arrows="1" fold="1" page="1" pageScale="1" pageWidth="1169" pageHeight="827" math="0" shadow="0">
      <root>
        <mxCell id="0" />
        <mxCell id="1" parent="0" />
        <mxCell id="oiQoulAyWWAEyC6V9DzT-19" value="" style="shape=folder;fontStyle=1;tabWidth=80;tabHeight=30;tabPosition=left;html=1;boundedLbl=1;whiteSpace=wrap;" vertex="1" parent="1">
          <mxGeometry x="140" y="290" width="480" height="140" as="geometry" />
        </mxCell>
        <mxCell id="oiQoulAyWWAEyC6V9DzT-15" value="&lt;p style=&quot;margin:0px;margin-top:4px;text-align:center;&quot;&gt;&lt;br&gt;&lt;b&gt;Acc/Gyro&lt;/b&gt;&lt;/p&gt;" style="verticalAlign=top;align=left;overflow=fill;html=1;whiteSpace=wrap;" vertex="1" parent="1">
          <mxGeometry x="460" y="350" width="140" height="60" as="geometry" />
        </mxCell>
        <mxCell id="oiQoulAyWWAEyC6V9DzT-16" value="&lt;p style=&quot;margin:0px;margin-top:4px;text-align:center;&quot;&gt;&lt;br&gt;&lt;b&gt;UsSensor&lt;/b&gt;&lt;/p&gt;" style="verticalAlign=top;align=left;overflow=fill;html=1;whiteSpace=wrap;" vertex="1" parent="1">
          <mxGeometry x="160" y="350" width="140" height="60" as="geometry" />
        </mxCell>
        <mxCell id="oiQoulAyWWAEyC6V9DzT-17" value="&lt;p style=&quot;margin:0px;margin-top:4px;text-align:center;&quot;&gt;&lt;br&gt;&lt;b&gt;Motor&lt;/b&gt;&lt;/p&gt;" style="verticalAlign=top;align=left;overflow=fill;html=1;whiteSpace=wrap;" vertex="1" parent="1">
          <mxGeometry x="790" y="340" width="140" height="60" as="geometry" />
        </mxCell>
        <mxCell id="oiQoulAyWWAEyC6V9DzT-18" value="&lt;p style=&quot;margin:0px;margin-top:4px;text-align:center;&quot;&gt;&lt;br&gt;&lt;b&gt;Compass&lt;/b&gt;&lt;/p&gt;" style="verticalAlign=top;align=left;overflow=fill;html=1;whiteSpace=wrap;" vertex="1" parent="1">
          <mxGeometry x="310" y="350" width="140" height="60" as="geometry" />
        </mxCell>
        <mxCell id="pZ4z50h_zcV95UAtvnE0-2" value="&lt;b&gt;&lt;font style=&quot;font-size: 16px;&quot;&gt;Sensors&lt;/font&gt;&lt;/b&gt;" style="text;html=1;align=center;verticalAlign=middle;resizable=0;points=[];autosize=1;strokeColor=none;fillColor=none;" vertex="1" parent="1">
          <mxGeometry x="135" y="290" width="90" height="30" as="geometry" />
        </mxCell>
        <mxCell id="pZ4z50h_zcV95UAtvnE0-3" value="" style="shape=folder;fontStyle=1;tabWidth=80;tabHeight=30;tabPosition=left;html=1;boundedLbl=1;whiteSpace=wrap;" vertex="1" parent="1">
          <mxGeometry x="229" y="70" width="250" height="140" as="geometry" />
        </mxCell>
        <mxCell id="pZ4z50h_zcV95UAtvnE0-4" value="&lt;b&gt;&lt;font style=&quot;font-size: 16px;&quot;&gt;Values&lt;/font&gt;&lt;/b&gt;" style="text;html=1;align=center;verticalAlign=middle;resizable=0;points=[];autosize=1;strokeColor=none;fillColor=none;" vertex="1" parent="1">
          <mxGeometry x="230" y="70" width="70" height="30" as="geometry" />
        </mxCell>
        <mxCell id="pZ4z50h_zcV95UAtvnE0-5" value="&lt;p style=&quot;margin:0px;margin-top:4px;text-align:center;&quot;&gt;&lt;br&gt;&lt;b&gt;Get/Set&lt;/b&gt;&lt;/p&gt;" style="verticalAlign=top;align=left;overflow=fill;html=1;whiteSpace=wrap;" vertex="1" parent="1">
          <mxGeometry x="285" y="125" width="140" height="60" as="geometry" />
        </mxCell>
        <mxCell id="pZ4z50h_zcV95UAtvnE0-9" style="edgeStyle=orthogonalEdgeStyle;rounded=0;orthogonalLoop=1;jettySize=auto;html=1;entryX=0.604;entryY=1.029;entryDx=0;entryDy=0;entryPerimeter=0;" edge="1" parent="1" source="oiQoulAyWWAEyC6V9DzT-19" target="pZ4z50h_zcV95UAtvnE0-3">
          <mxGeometry relative="1" as="geometry" />
        </mxCell>
      </root>
    </mxGraphModel>
  </diagram>
  <diagram id="UmkA3OimhPrdr9oncoZ6" name="DataFlow">
    <mxGraphModel dx="1364" dy="843" grid="1" gridSize="10" guides="1" tooltips="1" connect="1" arrows="1" fold="1" page="1" pageScale="1" pageWidth="1169" pageHeight="827" math="0" shadow="0">
      <root>
        <mxCell id="0" />
        <mxCell id="1" parent="0" />
      </root>
    </mxGraphModel>
  </diagram>
</mxfile>
